<?xml version="1.0" encoding="utf-8"?>
<!-- Generator: Adobe Illustrator 16.0.0, SVG Export Plug-In . SVG Version: 6.00 Build 0)  -->
<!DOCTYPE svg PUBLIC "-//W3C//DTD SVG 1.0//EN" "http://www.w3.org/TR/2001/REC-SVG-20010904/DTD/svg10.dtd">
<svg version="1.0" id="Layer_1" xmlns="http://www.w3.org/2000/svg" xmlns:xlink="http://www.w3.org/1999/xlink" x="0px" y="0px"
	 width="64px" height="64px" viewBox="0 0 64 64" enable-background="new 0 0 64 64" xml:space="preserve">
<g>
	<path fill="#231F20" d="M4,24h56c1.814,0,3.4-1.221,3.865-2.973c0.467-1.754-0.307-3.6-1.881-4.5l-28-16    C33.369,0.176,32.684,0,32,0s-1.369,0.176-1.984,0.527l-28,16c-1.574,0.9-2.348,2.746-1.881,4.5C0.6,22.779,2.186,24,4,24z"/>
	<path fill="#231F20" d="M60,56H6H4c-2.209,0-4,1.791-4,4v4h64v-4C64,57.791,62.209,56,60,56z"/>
	<rect x="28" y="28" fill="#231F20" width="8" height="24"/>
	<rect x="44" y="28" fill="#231F20" width="8" height="24"/>
	<rect x="12" y="28" fill="#231F20" width="8" height="24"/>
</g>
</svg>
