<svg width="25" height="20" viewBox="0 0 25 20" fill="none" xmlns="http://www.w3.org/2000/svg">
<path d="M17.0733 1.78027C17.0253 2.03027 17.0013 2.28027 17.0013 2.53026C17.0013 4.78023 19.1853 6.5992 21.8732 6.5992C22.1732 6.5992 22.4612 6.5702 22.7612 6.5302V14.5991C22.7612 17.99 20.3613 20 16.2813 20H7.41452C3.33334 20 0.93335 17.99 0.93335 14.5991V7.20019C0.93335 3.80024 3.33334 1.78027 7.41452 1.78027H17.0733ZM17.3145 7.86018C16.9893 7.83018 16.6665 7.95018 16.4733 8.17018L13.5705 11.3001L10.2453 9.12016C10.0413 8.99017 9.80131 8.93917 9.56131 8.96017C9.32251 8.99017 9.10651 9.09916 8.96131 9.25916L5.41053 13.1101L5.33733 13.2001C5.13333 13.5191 5.22933 13.9291 5.58933 14.1501C5.75733 14.2401 5.93733 14.3001 6.14132 14.3001C6.41852 14.3101 6.68132 14.1891 6.84932 14.0001L9.86131 10.7691L13.2813 12.9101L13.3893 12.9691C13.7733 13.1391 14.2533 13.0601 14.5293 12.7591L17.9973 9.03017L17.9493 9.05016C18.1413 8.83017 18.1773 8.55017 18.0453 8.30018C17.9145 8.05018 17.6253 7.88018 17.3145 7.86018ZM22.0414 0C23.6374 0 24.9334 1.07998 24.9334 2.40996C24.9334 3.73994 23.6374 4.81993 22.0414 4.81993C20.4454 4.81993 19.1494 3.73994 19.1494 2.40996C19.1494 1.07998 20.4454 0 22.0414 0Z" fill="#F66B04"/>
</svg>
